# xmcd CD database file
#
# Track frame offsets:
#	150
#	24185
#	48937
#	72054
#	90967
#	112474
#	131808
#	148404
#	170816
#	191903
#	219834
#	237173
#	250538
#	269729
#
# Disc length: 3862 seconds
#
# Revision: 2
# Processed by: cddbd v1.5.2PL0 Copyright (c) Steve Scherf et al.
# Submitted via: Feurio! 1.68 - http://www.feurio.com
#
DISCID=d10f140e
DTITLE=Márcio Cardoso - Paradoxos
DYEAR=1900
DGENRE=Religioso
TTITLE0=Altaneiro e Compassivo
TTITLE1=Vestígios
TTITLE2=O Vinho de Deus
TTITLE3=Pai de Todos
TTITLE4=Meia Verdade
TTITLE5=Paradoxos
TTITLE6=O Vazio
TTITLE7=O Prazer de Deus
TTITLE8=Caricaturas de Deus
TTITLE9=Transcendente e Meu Amigo
TTITLE10=Príncipe da Paz
TTITLE11=O Xote do Xodo
TTITLE12=Desejo
TTITLE13=Variacão
EXTD=
EXTT0=
EXTT1=
EXTT2=
EXTT3=
EXTT4=
EXTT5=
EXTT6=
EXTT7=
EXTT8=
EXTT9=
EXTT10=
EXTT11=
EXTT12=
EXTT13=
PLAYORDER=
